<svg width="150" height="30" viewBox="0 0 150 30" fill="none" xmlns="http://www.w3.org/2000/svg">
<path d="M8.05672 29.4C6.61672 29.4 5.31005 29.04 4.13672 28.32C2.96339 27.6 2.01672 26.64 1.29672 25.44C0.603385 24.2133 0.256719 22.8533 0.256719 21.36V8.68C0.256719 7.24 0.603385 5.92 1.29672 4.72C2.01672 3.49333 2.96339 2.52 4.13672 1.8C5.33672 1.08 6.64339 0.719999 8.05672 0.719999C9.52339 0.719999 10.8434 1.08 12.0167 1.8C13.2167 2.49333 14.1634 3.44 14.8567 4.64C15.5501 5.84 15.8967 7.18667 15.8967 8.68V10.52C15.8967 10.6267 15.8301 10.68 15.6967 10.68H11.2167C11.1101 10.68 11.0567 10.6267 11.0567 10.52V9C11.0567 7.98667 10.7634 7.14667 10.1767 6.48C9.61672 5.81333 8.91005 5.48 8.05672 5.48C7.28339 5.48 6.59005 5.8 5.97672 6.44C5.39005 7.08 5.09672 7.82667 5.09672 8.68V21.36C5.09672 22.24 5.39005 23 5.97672 23.64C6.56339 24.2533 7.25672 24.56 8.05672 24.56C8.91005 24.56 9.61672 24.2533 10.1767 23.64C10.7634 23.0267 11.0567 22.2667 11.0567 21.36V19.4H8.25672C8.12339 19.4 8.05672 19.3333 8.05672 19.2V14.72C8.05672 14.5867 8.12339 14.52 8.25672 14.52H15.7367C15.8434 14.52 15.8967 14.5867 15.8967 14.72V21.36C15.8967 22.8533 15.5367 24.2133 14.8167 25.44C14.1234 26.64 13.1901 27.6 12.0167 28.32C10.8434 29.04 9.52339 29.4 8.05672 29.4ZM24.3389 29.4C22.9256 29.4 21.6189 29.04 20.4189 28.32C19.2189 27.5733 18.2589 26.5867 17.5389 25.36C16.8456 24.1333 16.4989 22.7867 16.4989 21.32L16.5789 1.32C16.5789 1.21333 16.6322 1.16 16.7389 1.16H21.2189C21.3256 1.16 21.3789 1.21333 21.3789 1.32V21.32C21.3789 22.2267 21.6589 23 22.2189 23.64C22.8056 24.2533 23.5122 24.56 24.3389 24.56C25.1922 24.56 25.8989 24.2533 26.4589 23.64C27.0456 23 27.3389 22.2267 27.3389 21.32V1.32C27.3389 1.21333 27.3922 1.16 27.4989 1.16H31.9789C32.0856 1.16 32.1389 1.21333 32.1389 1.32L32.2189 21.32C32.2189 22.8133 31.8589 24.1733 31.1389 25.4C30.4456 26.6267 29.4989 27.6 28.2989 28.32C27.1256 29.04 25.8056 29.4 24.3389 29.4ZM33.5773 29C33.444 29 33.3773 28.9333 33.3773 28.8L33.4173 1.32C33.4173 1.21333 33.4707 1.16 33.5773 1.16H38.0573C38.164 1.16 38.2173 1.21333 38.2173 1.32L38.2573 28.8C38.2573 28.9333 38.204 29 38.0973 29H33.5773ZM43.7758 29C43.6691 29 43.6158 28.9333 43.6158 28.8V6H38.4158C38.2824 6 38.2158 5.93333 38.2158 5.8L38.2558 1.32C38.2558 1.21333 38.3091 1.16 38.4158 1.16H53.6158C53.7491 1.16 53.8158 1.21333 53.8158 1.32V5.8C53.8158 5.93333 53.7624 6 53.6558 6H48.4158L48.4558 28.8C48.4558 28.9333 48.4024 29 48.2958 29H43.7758ZM50.5955 28.8L55.5555 1.32C55.5821 1.21333 55.6488 1.16 55.7555 1.16H61.5555C61.6621 1.16 61.7288 1.21333 61.7555 1.32L66.5155 28.8C66.5421 28.9333 66.4888 29 66.3555 29H61.9155C61.8088 29 61.7421 28.9333 61.7155 28.8L61.2755 25.88H55.8355L55.3955 28.8C55.3688 28.9333 55.3021 29 55.1955 29H50.7555C50.6488 29 50.5955 28.9333 50.5955 28.8ZM56.6355 21.6H60.4755L58.8355 10.36L58.5955 8.88L58.4355 10.36L56.6355 21.6ZM67.1858 29C67.0791 29 67.0258 28.9333 67.0258 28.8L67.1058 1.32C67.1058 1.21333 67.1591 1.16 67.2658 1.16H75.3458C76.7858 1.16 78.1058 1.52 79.3058 2.24C80.5324 2.93333 81.5058 3.88 82.2258 5.08C82.9458 6.25333 83.3058 7.58667 83.3058 9.08C83.3058 10.0667 83.1591 10.96 82.8658 11.76C82.5724 12.5333 82.2258 13.2 81.8258 13.76C81.4258 14.2933 81.0658 14.6933 80.7458 14.96C82.1858 16.56 82.9058 18.44 82.9058 20.6L82.9458 28.8C82.9458 28.9333 82.8791 29 82.7458 29H78.2258C78.1191 29 78.0658 28.96 78.0658 28.88V20.6C78.0658 19.64 77.7191 18.8133 77.0258 18.12C76.3591 17.4 75.5324 17.04 74.5458 17.04H71.9058L71.8658 28.8C71.8658 28.9333 71.8124 29 71.7058 29H67.1858ZM71.9058 12.24H75.3458C76.1724 12.24 76.9058 11.9333 77.5458 11.32C78.1858 10.7067 78.5058 9.96 78.5058 9.08C78.5058 8.22667 78.1858 7.49333 77.5458 6.88C76.9324 6.26667 76.1991 5.96 75.3458 5.96H71.9058V12.24Z" fill="#1E1E1E"/>
<path d="M91.4473 29.4C90.0073 29.4 88.7007 29.04 87.5273 28.32C86.354 27.6 85.4073 26.64 84.6873 25.44C83.994 24.2133 83.6473 22.8533 83.6473 21.36V8.68C83.6473 7.24 83.994 5.92 84.6873 4.72C85.4073 3.49333 86.354 2.52 87.5273 1.8C88.7273 1.08 90.034 0.719999 91.4473 0.719999C92.914 0.719999 94.234 1.08 95.4073 1.8C96.6073 2.49333 97.554 3.44 98.2473 4.64C98.9407 5.84 99.2873 7.18667 99.2873 8.68V10.52C99.2873 10.6267 99.2207 10.68 99.0873 10.68H94.6073C94.5007 10.68 94.4473 10.6267 94.4473 10.52V9C94.4473 7.98667 94.154 7.14667 93.5673 6.48C93.0073 5.81333 92.3007 5.48 91.4473 5.48C90.674 5.48 89.9807 5.8 89.3673 6.44C88.7807 7.08 88.4873 7.82667 88.4873 8.68V21.36C88.4873 22.24 88.7807 23 89.3673 23.64C89.954 24.2533 90.6473 24.56 91.4473 24.56C92.3007 24.56 93.0073 24.2533 93.5673 23.64C94.154 23.0267 94.4473 22.2667 94.4473 21.36V19.4H91.6473C91.514 19.4 91.4473 19.3333 91.4473 19.2V14.72C91.4473 14.5867 91.514 14.52 91.6473 14.52H99.1273C99.234 14.52 99.2873 14.5867 99.2873 14.72V21.36C99.2873 22.8533 98.9273 24.2133 98.2073 25.44C97.514 26.64 96.5807 27.6 95.4073 28.32C94.234 29.04 92.914 29.4 91.4473 29.4ZM107.73 29.4C106.316 29.4 105.01 29.04 103.81 28.32C102.61 27.5733 101.65 26.5867 100.93 25.36C100.236 24.1333 99.8895 22.7867 99.8895 21.32L99.9695 1.32C99.9695 1.21333 100.023 1.16 100.13 1.16H104.61C104.716 1.16 104.77 1.21333 104.77 1.32V21.32C104.77 22.2267 105.05 23 105.61 23.64C106.196 24.2533 106.903 24.56 107.73 24.56C108.583 24.56 109.29 24.2533 109.85 23.64C110.436 23 110.73 22.2267 110.73 21.32V1.32C110.73 1.21333 110.783 1.16 110.89 1.16H115.37C115.476 1.16 115.53 1.21333 115.53 1.32L115.61 21.32C115.61 22.8133 115.25 24.1733 114.53 25.4C113.836 26.6267 112.89 27.6 111.69 28.32C110.516 29.04 109.196 29.4 107.73 29.4ZM116.928 29C116.821 29 116.768 28.9333 116.768 28.8L116.848 1.32C116.848 1.21333 116.901 1.16 117.008 1.16H125.088C126.528 1.16 127.848 1.52 129.048 2.24C130.275 2.93333 131.248 3.88 131.968 5.08C132.688 6.25333 133.048 7.58667 133.048 9.08C133.048 10.0667 132.901 10.96 132.608 11.76C132.315 12.5333 131.968 13.2 131.568 13.76C131.168 14.2933 130.808 14.6933 130.488 14.96C131.928 16.56 132.648 18.44 132.648 20.6L132.688 28.8C132.688 28.9333 132.621 29 132.488 29H127.968C127.861 29 127.808 28.96 127.808 28.88V20.6C127.808 19.64 127.461 18.8133 126.768 18.12C126.101 17.4 125.275 17.04 124.288 17.04H121.648L121.608 28.8C121.608 28.9333 121.555 29 121.448 29H116.928ZM121.648 12.24H125.088C125.915 12.24 126.648 11.9333 127.288 11.32C127.928 10.7067 128.248 9.96 128.248 9.08C128.248 8.22667 127.928 7.49333 127.288 6.88C126.675 6.26667 125.941 5.96 125.088 5.96H121.648V12.24ZM141.425 29.4C140.012 29.4 138.705 29.04 137.505 28.32C136.305 27.5733 135.345 26.5867 134.625 25.36C133.932 24.1333 133.585 22.7867 133.585 21.32L133.665 1.32C133.665 1.21333 133.718 1.16 133.825 1.16H138.305C138.412 1.16 138.465 1.21333 138.465 1.32V21.32C138.465 22.2267 138.745 23 139.305 23.64C139.892 24.2533 140.598 24.56 141.425 24.56C142.278 24.56 142.985 24.2533 143.545 23.64C144.132 23 144.425 22.2267 144.425 21.32V1.32C144.425 1.21333 144.478 1.16 144.585 1.16H149.065C149.172 1.16 149.225 1.21333 149.225 1.32L149.305 21.32C149.305 22.8133 148.945 24.1733 148.225 25.4C147.532 26.6267 146.585 27.6 145.385 28.32C144.212 29.04 142.892 29.4 141.425 29.4Z" fill="#E22222"/>
</svg>
